HIERARCHY
ROOT Hips
{
	OFFSET 0 0 0
	CHANNELS 6 Xposition Yposition Zposition Zrotation Yrotation Xrotation
	JOINT LeftThigh
	{
		OFFSET 8.209213 0 -5.776854
		CHANNELS 3 Zrotation Yrotation Xrotation
		JOINT LeftLeg
		{
			OFFSET 0 0 -41.350112
			CHANNELS 3 Zrotation Yrotation Xrotation
			JOINT LeftFoot
			{
				OFFSET 0 0 -38.420225
				CHANNELS 3 Zrotation Yrotation Xrotation
				End Site
				{
					OFFSET 0 -13.011281 -4.889596
				}
			}
		}
	}
	JOINT RightThigh
	{
		OFFSET -8.209213 0 -5.776854
		CHANNELS 3 Zrotation Yrotation Xrotation
		JOINT RightLeg
		{
			OFFSET 0 0 -41.350112
			CHANNELS 3 Zrotation Yrotation Xrotation
			JOINT RightFoot
			{
				OFFSET 0 0 -38.420225
				CHANNELS 3 Zrotation Yrotation Xrotation
				End Site
				{
					OFFSET 0 -13.011281 -4.889596
				}
			}
		}
	}
	JOINT SpineLow
	{
		OFFSET 0 0 4.606742
		CHANNELS 3 Zrotation Yrotation Xrotation
		JOINT SpineMid
		{
			OFFSET 0 0 12.592067
			CHANNELS 3 Zrotation Yrotation Xrotation
			JOINT Chest
			{
				OFFSET 0 0 12.592067
				CHANNELS 3 Zrotation Yrotation Xrotation
				JOINT LeftShoulder
				{
					OFFSET 7.370787 1.382022 9.213483
					CHANNELS 3 Zrotation Yrotation Xrotation
					JOINT LeftArm
					{
						OFFSET 8.937079 0 4.146067
						CHANNELS 3 Zrotation Yrotation Xrotation
						JOINT LeftForearm
						{
							OFFSET 0 0 25.158337
							CHANNELS 3 Zrotation Yrotation Xrotation
							JOINT LeftHand
							{
								OFFSET 0 0 24.597236
								CHANNELS 3 Zrotation Yrotation Xrotation
							}
						}
					}
				}
				JOINT RightShoulder
				{
					OFFSET -7.370787 1.382022 9.213483
					CHANNELS 3 Zrotation Yrotation Xrotation
					JOINT RightArm
					{
						OFFSET -8.937079 0 4.146067
						CHANNELS 3 Zrotation Yrotation Xrotation
						JOINT RightForearm
						{
							OFFSET 0 0 -25.158337
							CHANNELS 3 Zrotation Yrotation Xrotation
							JOINT RightHand
							{
								OFFSET 0 0 -24.597236
								CHANNELS 3 Zrotation Yrotation Xrotation
							}
						}
					}
				}
				JOINT Neck
				{
					OFFSET 0 0 14.741573
					CHANNELS 3 Zrotation Yrotation Xrotation
					JOINT Head
					{
						OFFSET 0 0 11.05618
						CHANNELS 3 Zrotation Yrotation Xrotation
						End Site
						{
							OFFSET 0 0 7.325843
						}
					}
				}
			}
		}
	}
}
MOTION
Frames: 6
Frame Time: 0.01
108.787418677516 77.3213755989331 -84.1306419585905 -162.369947 49.134885 113.86598 26.846271 -14.092865 -64.628726 -13.751853 11.736117 54.486322 -4.198852 5.133156 2.807862 0.421194 8.655434 6.735212 -4.493138 1.291485 23.658455 0.102853 -1.403473 -2.185289 0.753491 -1.366612 -1.341242 2.136755 -3.691929 -3.71192 2.136755 -3.691929 -3.71192 -24.739163 -0.73817 -0.563091 -168.650826 58.469022 -108.611693 -35.445172 27.060574 77.040192 19.095269 -8.505597 -25.429962 -13.582011 -4.182181 14.745955 54.555209 12.831646 21.493496 -3.631998 -20.482518 -131.601464 58.281617 9.993183 11.592254 5.084306 -4.364204 1.782432 3.82417 -3.258634 1.37266
108.627673253649 77.387927419873 -84.1715533115712 -162.037234 49.841702 114.366771 27.185734 -14.169201 -64.621225 -13.533167 11.612993 54.448855 -4.019639 5.144868 2.786835 0.730475 9.133628 6.287466 -4.765835 1.077602 23.924129 0.170567 -1.459457 -2.224488 0.83253 -1.346597 -1.358949 2.352712 -3.632126 -3.763935 2.352712 -3.632126 -3.763935 -24.445743 -0.354285 -0.917317 -174.301559 60.336288 -111.868472 -31.789046 27.036275 80.472138 18.354583 -9.604655 -23.747477 -13.426861 -4.298034 14.828756 54.534747 13.027251 21.56914 -3.52237 -20.355097 -131.68368 58.273399 10.060482 11.391649 5.246565 -4.40158 1.762468 3.945739 -3.286383 1.359172
108.658551502014 77.3509033169368 -84.0337012817661 -161.946583 50.547454 114.685159 27.920961 -13.913498 -64.753674 -13.633548 11.742495 54.402824 -3.924886 5.179165 2.792619 0.882021 9.84825 5.767229 -5.000826 0.769156 24.29535 0.25106 -1.524699 -2.289638 0.842132 -1.269545 -1.371108 2.375002 -3.420627 -3.794628 2.375002 -3.420627 -3.794628 -24.118858 -0.626556 -1.37992 179.434595 61.477179 -116.80775 -27.150492 27.612067 84.150174 18.210382 -10.689681 -21.864841 -12.990971 -4.762241 14.979873 54.117292 13.131786 21.973111 -3.201052 -20.016815 -132.000345 58.18882 10.069592 11.093082 5.463054 -4.528849 1.774656 4.108369 -3.381138 1.370987
108.429697368043 77.4074866373109 -84.0356416401657 -161.351913 51.671381 115.401302 28.680259 -13.85938 -64.752145 -13.500831 11.559908 54.418332 -3.72524 5.206912 2.82873 1.501993 10.555252 5.089221 -5.357236 0.358007 24.976347 0.34062 -1.622729 -2.37093 1.010823 -1.214662 -1.419515 2.835337 -3.258807 -3.933065 2.835337 -3.258807 -3.933064 -24.725636 -1.350194 -1.402977 174.113955 62.298116 -121.643231 -22.028061 28.229789 87.6983 18.425288 -11.374461 -19.353494 -13.20932 -5.192826 15.301743 54.302824 13.395044 22.184163 -3.145168 -19.877279 -131.975857 58.171003 10.192773 10.991402 5.471109 -4.692729 1.885646 4.115586 -3.503051 1.455676
108.294577750397 77.3790380670231 -83.907963009275 -160.642913 53.009827 116.157821 30.05055 -13.655567 -64.880965 -13.677935 11.894125 54.470081 -3.390362 5.175124 2.843182 2.173088 11.448853 4.314025 -5.635983 -0.175796 25.822809 0.479616 -1.751115 -2.438678 1.20488 -1.144813 -1.467947 3.363748 -3.053849 -4.071078 3.363748 -3.053849 -4.071077 -26.40238 -1.77225 -1.069892 170.736316 64.393644 -126.086806 -16.708274 28.839375 90.995824 19.030551 -11.649046 -16.135751 -13.543422 -5.766172 15.740057 53.795953 13.431272 22.749508 -3.260856 -19.903544 -132.020185 57.785012 9.866503 10.073511 5.362673 -4.842347 2.089684 4.036252 -3.613818 1.609057
107.994486995187 77.4331525399234 -83.9297712261354 -159.631938 54.605286 117.11356 31.214121 -13.606408 -64.743389 -13.583472 11.721823 54.607448 -3.126888 5.166046 2.86312 2.926719 12.486025 3.398213 -5.870537 -0.896143 26.969262 0.614707 -1.886405 -2.51197 1.435719 -1.084577 -1.508236 3.992621 -2.872498 -4.187785 3.992621 -2.872498 -4.187785 -27.540381 -2.344628 -0.360733 167.508441 67.778523 -129.86044 -12.150013 29.274641 93.53116 20.383643 -11.317553 -12.405124 -13.856131 -6.42569 16.204448 54.137619 13.662682 22.978391 -3.236991 -19.855843 -131.866282 57.729375 9.950444 10.051028 5.391235 -4.986996 2.28452 4.059617 -3.720515 1.756561
